solid impression
  facet normal 1.000000e+00 0.000000e+00 -0.000000e+00
    outer loop
      vertex -1.200000e+00 -6.700000e-01 -6.000000e-01
      vertex -1.200000e+00 -6.700000e-01 -1.950000e-01
      vertex -1.200000e+00 -1.000000e+00 -1.950000e-01
    endloop
  endfacet
  facet normal 1.000000e+00 0.000000e+00 0.000000e+00
    outer loop
      vertex -1.200000e+00 -1.000000e+00 -1.950000e-01
      vertex -1.200000e+00 -1.000000e+00 -6.000000e-01
      vertex -1.200000e+00 -6.700000e-01 -6.000000e-01
    endloop
  endfacet
  facet normal 1.000000e+00 0.000000e+00 -0.000000e+00
    outer loop
      vertex -1.200000e+00 -6.700000e-01 -1.950000e-01
      vertex -1.200000e+00 -6.700000e-01 6.000000e-01
      vertex -1.200000e+00 -1.000000e+00 6.000000e-01
    endloop
  endfacet
  facet normal 1.000000e+00 0.000000e+00 0.000000e+00
    outer loop
      vertex -1.200000e+00 -1.000000e+00 6.000000e-01
      vertex -1.200000e+00 -1.000000e+00 -1.950000e-01
      vertex -1.200000e+00 -6.700000e-01 -1.950000e-01
    endloop
  endfacet
  facet normal 1.000000e+00 0.000000e+00 -0.000000e+00
    outer loop
      vertex -1.200000e+00 -2.900000e-01 -6.000000e-01
      vertex -1.200000e+00 -2.900000e-01 -1.950000e-01
      vertex -1.200000e+00 -6.700000e-01 -1.950000e-01
    endloop
  endfacet
  facet normal 1.000000e+00 0.000000e+00 0.000000e+00
    outer loop
      vertex -1.200000e+00 -6.700000e-01 -1.950000e-01
      vertex -1.200000e+00 -6.700000e-01 -6.000000e-01
      vertex -1.200000e+00 -2.900000e-01 -6.000000e-01
    endloop
  endfacet
  facet normal 1.000000e+00 0.000000e+00 -0.000000e+00
    outer loop
      vertex -1.200000e+00 -2.900000e-01 -1.950000e-01
      vertex -1.200000e+00 -2.900000e-01 6.000000e-01
      vertex -1.200000e+00 -6.700000e-01 6.000000e-01
    endloop
  endfacet
  facet normal 1.000000e+00 0.000000e+00 0.000000e+00
    outer loop
      vertex -1.200000e+00 -6.700000e-01 6.000000e-01
      vertex -1.200000e+00 -6.700000e-01 -1.950000e-01
      vertex -1.200000e+00 -2.900000e-01 -1.950000e-01
    endloop
  endfacet
  facet normal 1.000000e+00 0.000000e+00 -0.000000e+00
    outer loop
      vertex -1.200000e+00 1.000000e+00 -6.000000e-01
      vertex -1.200000e+00 1.000000e+00 -1.950000e-01
      vertex -1.200000e+00 -2.900000e-01 -1.950000e-01
    endloop
  endfacet
  facet normal 1.000000e+00 0.000000e+00 0.000000e+00
    outer loop
      vertex -1.200000e+00 -2.900000e-01 -1.950000e-01
      vertex -1.200000e+00 -2.900000e-01 -6.000000e-01
      vertex -1.200000e+00 1.000000e+00 -6.000000e-01
    endloop
  endfacet
  facet normal 1.000000e+00 0.000000e+00 -0.000000e+00
    outer loop
      vertex -1.200000e+00 1.000000e+00 -1.950000e-01
      vertex -1.200000e+00 1.000000e+00 6.000000e-01
      vertex -1.200000e+00 -2.900000e-01 6.000000e-01
    endloop
  endfacet
  facet normal 1.000000e+00 0.000000e+00 0.000000e+00
    outer loop
      vertex -1.200000e+00 -2.900000e-01 6.000000e-01
      vertex -1.200000e+00 -2.900000e-01 -1.950000e-01
      vertex -1.200000e+00 1.000000e+00 -1.950000e-01
    endloop
  endfacet
  facet normal 1.000000e+00 0.000000e+00 -0.000000e+00
    outer loop
      vertex 9.000000e-01 -2.900000e-01 6.000000e-01
      vertex 9.000000e-01 -2.900000e-01 7.550000e-01
      vertex 9.000000e-01 -6.700000e-01 7.550000e-01
    endloop
  endfacet
  facet normal 1.000000e+00 0.000000e+00 0.000000e+00
    outer loop
      vertex 9.000000e-01 -6.700000e-01 7.550000e-01
      vertex 9.000000e-01 -6.700000e-01 6.000000e-01
      vertex 9.000000e-01 -2.900000e-01 6.000000e-01
    endloop
  endfacet
  facet normal -1.000000e+00 0.000000e+00 -0.000000e+00
    outer loop
      vertex 1.200000e+00 -6.700000e-01 -1.950000e-01
      vertex 1.200000e+00 -6.700000e-01 -6.000000e-01
      vertex 1.200000e+00 -1.000000e+00 -6.000000e-01
    endloop
  endfacet
  facet normal -1.000000e+00 0.000000e+00 0.000000e+00
    outer loop
      vertex 1.200000e+00 -1.000000e+00 -6.000000e-01
      vertex 1.200000e+00 -1.000000e+00 -1.950000e-01
      vertex 1.200000e+00 -6.700000e-01 -1.950000e-01
    endloop
  endfacet
  facet normal -1.000000e+00 0.000000e+00 -0.000000e+00
    outer loop
      vertex 1.200000e+00 -6.700000e-01 6.000000e-01
      vertex 1.200000e+00 -6.700000e-01 -1.950000e-01
      vertex 1.200000e+00 -1.000000e+00 -1.950000e-01
    endloop
  endfacet
  facet normal -1.000000e+00 0.000000e+00 0.000000e+00
    outer loop
      vertex 1.200000e+00 -1.000000e+00 -1.950000e-01
      vertex 1.200000e+00 -1.000000e+00 6.000000e-01
      vertex 1.200000e+00 -6.700000e-01 6.000000e-01
    endloop
  endfacet
  facet normal -1.000000e+00 0.000000e+00 -0.000000e+00
    outer loop
      vertex 1.200000e+00 -2.900000e-01 -1.950000e-01
      vertex 1.200000e+00 -2.900000e-01 -6.000000e-01
      vertex 1.200000e+00 -6.700000e-01 -6.000000e-01
    endloop
  endfacet
  facet normal -1.000000e+00 0.000000e+00 0.000000e+00
    outer loop
      vertex 1.200000e+00 -6.700000e-01 -6.000000e-01
      vertex 1.200000e+00 -6.700000e-01 -1.950000e-01
      vertex 1.200000e+00 -2.900000e-01 -1.950000e-01
    endloop
  endfacet
  facet normal -1.000000e+00 0.000000e+00 -0.000000e+00
    outer loop
      vertex 1.200000e+00 1.000000e+00 -1.950000e-01
      vertex 1.200000e+00 1.000000e+00 -6.000000e-01
      vertex 1.200000e+00 -2.900000e-01 -6.000000e-01
    endloop
  endfacet
  facet normal -1.000000e+00 0.000000e+00 0.000000e+00
    outer loop
      vertex 1.200000e+00 -2.900000e-01 -6.000000e-01
      vertex 1.200000e+00 -2.900000e-01 -1.950000e-01
      vertex 1.200000e+00 1.000000e+00 -1.950000e-01
    endloop
  endfacet
  facet normal -1.000000e+00 0.000000e+00 -0.000000e+00
    outer loop
      vertex 1.200000e+00 1.000000e+00 6.000000e-01
      vertex 1.200000e+00 1.000000e+00 -1.950000e-01
      vertex 1.200000e+00 -2.900000e-01 -1.950000e-01
    endloop
  endfacet
  facet normal -1.000000e+00 0.000000e+00 0.000000e+00
    outer loop
      vertex 1.200000e+00 -2.900000e-01 -1.950000e-01
      vertex 1.200000e+00 -2.900000e-01 6.000000e-01
      vertex 1.200000e+00 1.000000e+00 6.000000e-01
    endloop
  endfacet
  facet normal -1.000000e+00 0.000000e+00 -0.000000e+00
    outer loop
      vertex 1.400000e+00 -2.900000e-01 6.000000e-01
      vertex 1.400000e+00 -2.900000e-01 -1.950000e-01
      vertex 1.400000e+00 -6.700000e-01 -1.950000e-01
    endloop
  endfacet
  facet normal -1.000000e+00 0.000000e+00 0.000000e+00
    outer loop
      vertex 1.400000e+00 -6.700000e-01 -1.950000e-01
      vertex 1.400000e+00 -6.700000e-01 6.000000e-01
      vertex 1.400000e+00 -2.900000e-01 6.000000e-01
    endloop
  endfacet
  facet normal -1.000000e+00 0.000000e+00 -0.000000e+00
    outer loop
      vertex 1.400000e+00 -2.900000e-01 7.550000e-01
      vertex 1.400000e+00 -2.900000e-01 6.000000e-01
      vertex 1.400000e+00 -6.700000e-01 6.000000e-01
    endloop
  endfacet
  facet normal -1.000000e+00 0.000000e+00 0.000000e+00
    outer loop
      vertex 1.400000e+00 -6.700000e-01 6.000000e-01
      vertex 1.400000e+00 -6.700000e-01 7.550000e-01
      vertex 1.400000e+00 -2.900000e-01 7.550000e-01
    endloop
  endfacet
  facet normal 0.000000e+00 1.000000e+00 0.000000e+00
    outer loop
      vertex 9.000000e-01 -1.000000e+00 -6.000000e-01
      vertex -1.200000e+00 -1.000000e+00 -6.000000e-01
      vertex -1.200000e+00 -1.000000e+00 -1.950000e-01
    endloop
  endfacet
  facet normal -0.000000e+00 1.000000e+00 0.000000e+00
    outer loop
      vertex -1.200000e+00 -1.000000e+00 -1.950000e-01
      vertex 9.000000e-01 -1.000000e+00 -1.950000e-01
      vertex 9.000000e-01 -1.000000e+00 -6.000000e-01
    endloop
  endfacet
  facet normal 0.000000e+00 1.000000e+00 0.000000e+00
    outer loop
      vertex 9.000000e-01 -1.000000e+00 -1.950000e-01
      vertex -1.200000e+00 -1.000000e+00 -1.950000e-01
      vertex -1.200000e+00 -1.000000e+00 6.000000e-01
    endloop
  endfacet
  facet normal -0.000000e+00 1.000000e+00 0.000000e+00
    outer loop
      vertex -1.200000e+00 -1.000000e+00 6.000000e-01
      vertex 9.000000e-01 -1.000000e+00 6.000000e-01
      vertex 9.000000e-01 -1.000000e+00 -1.950000e-01
    endloop
  endfacet
  facet normal 0.000000e+00 1.000000e+00 0.000000e+00
    outer loop
      vertex 1.200000e+00 -1.000000e+00 -6.000000e-01
      vertex 9.000000e-01 -1.000000e+00 -6.000000e-01
      vertex 9.000000e-01 -1.000000e+00 -1.950000e-01
    endloop
  endfacet
  facet normal -0.000000e+00 1.000000e+00 0.000000e+00
    outer loop
      vertex 9.000000e-01 -1.000000e+00 -1.950000e-01
      vertex 1.200000e+00 -1.000000e+00 -1.950000e-01
      vertex 1.200000e+00 -1.000000e+00 -6.000000e-01
    endloop
  endfacet
  facet normal 0.000000e+00 1.000000e+00 0.000000e+00
    outer loop
      vertex 1.200000e+00 -1.000000e+00 -1.950000e-01
      vertex 9.000000e-01 -1.000000e+00 -1.950000e-01
      vertex 9.000000e-01 -1.000000e+00 6.000000e-01
    endloop
  endfacet
  facet normal -0.000000e+00 1.000000e+00 0.000000e+00
    outer loop
      vertex 9.000000e-01 -1.000000e+00 6.000000e-01
      vertex 1.200000e+00 -1.000000e+00 6.000000e-01
      vertex 1.200000e+00 -1.000000e+00 -1.950000e-01
    endloop
  endfacet
  facet normal 0.000000e+00 1.000000e+00 0.000000e+00
    outer loop
      vertex 1.200000e+00 -6.700000e-01 6.000000e-01
      vertex 9.000000e-01 -6.700000e-01 6.000000e-01
      vertex 9.000000e-01 -6.700000e-01 7.550000e-01
    endloop
  endfacet
  facet normal -0.000000e+00 1.000000e+00 0.000000e+00
    outer loop
      vertex 9.000000e-01 -6.700000e-01 7.550000e-01
      vertex 1.200000e+00 -6.700000e-01 7.550000e-01
      vertex 1.200000e+00 -6.700000e-01 6.000000e-01
    endloop
  endfacet
  facet normal 0.000000e+00 1.000000e+00 0.000000e+00
    outer loop
      vertex 1.400000e+00 -6.700000e-01 -1.950000e-01
      vertex 1.200000e+00 -6.700000e-01 -1.950000e-01
      vertex 1.200000e+00 -6.700000e-01 6.000000e-01
    endloop
  endfacet
  facet normal -0.000000e+00 1.000000e+00 0.000000e+00
    outer loop
      vertex 1.200000e+00 -6.700000e-01 6.000000e-01
      vertex 1.400000e+00 -6.700000e-01 6.000000e-01
      vertex 1.400000e+00 -6.700000e-01 -1.950000e-01
    endloop
  endfacet
  facet normal 0.000000e+00 1.000000e+00 0.000000e+00
    outer loop
      vertex 1.400000e+00 -6.700000e-01 6.000000e-01
      vertex 1.200000e+00 -6.700000e-01 6.000000e-01
      vertex 1.200000e+00 -6.700000e-01 7.550000e-01
    endloop
  endfacet
  facet normal -0.000000e+00 1.000000e+00 0.000000e+00
    outer loop
      vertex 1.200000e+00 -6.700000e-01 7.550000e-01
      vertex 1.400000e+00 -6.700000e-01 7.550000e-01
      vertex 1.400000e+00 -6.700000e-01 6.000000e-01
    endloop
  endfacet
  facet normal -0.000000e+00 -1.000000e+00 0.000000e+00
    outer loop
      vertex 9.000000e-01 1.000000e+00 -1.950000e-01
      vertex -1.200000e+00 1.000000e+00 -1.950000e-01
      vertex -1.200000e+00 1.000000e+00 -6.000000e-01
    endloop
  endfacet
  facet normal 0.000000e+00 -1.000000e+00 0.000000e+00
    outer loop
      vertex -1.200000e+00 1.000000e+00 -6.000000e-01
      vertex 9.000000e-01 1.000000e+00 -6.000000e-01
      vertex 9.000000e-01 1.000000e+00 -1.950000e-01
    endloop
  endfacet
  facet normal -0.000000e+00 -1.000000e+00 0.000000e+00
    outer loop
      vertex 9.000000e-01 1.000000e+00 6.000000e-01
      vertex -1.200000e+00 1.000000e+00 6.000000e-01
      vertex -1.200000e+00 1.000000e+00 -1.950000e-01
    endloop
  endfacet
  facet normal 0.000000e+00 -1.000000e+00 0.000000e+00
    outer loop
      vertex -1.200000e+00 1.000000e+00 -1.950000e-01
      vertex 9.000000e-01 1.000000e+00 -1.950000e-01
      vertex 9.000000e-01 1.000000e+00 6.000000e-01
    endloop
  endfacet
  facet normal -0.000000e+00 -1.000000e+00 0.000000e+00
    outer loop
      vertex 1.200000e+00 -2.900000e-01 7.550000e-01
      vertex 9.000000e-01 -2.900000e-01 7.550000e-01
      vertex 9.000000e-01 -2.900000e-01 6.000000e-01
    endloop
  endfacet
  facet normal 0.000000e+00 -1.000000e+00 0.000000e+00
    outer loop
      vertex 9.000000e-01 -2.900000e-01 6.000000e-01
      vertex 1.200000e+00 -2.900000e-01 6.000000e-01
      vertex 1.200000e+00 -2.900000e-01 7.550000e-01
    endloop
  endfacet
  facet normal -0.000000e+00 -1.000000e+00 0.000000e+00
    outer loop
      vertex 1.200000e+00 1.000000e+00 -1.950000e-01
      vertex 9.000000e-01 1.000000e+00 -1.950000e-01
      vertex 9.000000e-01 1.000000e+00 -6.000000e-01
    endloop
  endfacet
  facet normal 0.000000e+00 -1.000000e+00 0.000000e+00
    outer loop
      vertex 9.000000e-01 1.000000e+00 -6.000000e-01
      vertex 1.200000e+00 1.000000e+00 -6.000000e-01
      vertex 1.200000e+00 1.000000e+00 -1.950000e-01
    endloop
  endfacet
  facet normal -0.000000e+00 -1.000000e+00 0.000000e+00
    outer loop
      vertex 1.200000e+00 1.000000e+00 6.000000e-01
      vertex 9.000000e-01 1.000000e+00 6.000000e-01
      vertex 9.000000e-01 1.000000e+00 -1.950000e-01
    endloop
  endfacet
  facet normal 0.000000e+00 -1.000000e+00 0.000000e+00
    outer loop
      vertex 9.000000e-01 1.000000e+00 -1.950000e-01
      vertex 1.200000e+00 1.000000e+00 -1.950000e-01
      vertex 1.200000e+00 1.000000e+00 6.000000e-01
    endloop
  endfacet
  facet normal -0.000000e+00 -1.000000e+00 0.000000e+00
    outer loop
      vertex 1.400000e+00 -2.900000e-01 6.000000e-01
      vertex 1.200000e+00 -2.900000e-01 6.000000e-01
      vertex 1.200000e+00 -2.900000e-01 -1.950000e-01
    endloop
  endfacet
  facet normal 0.000000e+00 -1.000000e+00 0.000000e+00
    outer loop
      vertex 1.200000e+00 -2.900000e-01 -1.950000e-01
      vertex 1.400000e+00 -2.900000e-01 -1.950000e-01
      vertex 1.400000e+00 -2.900000e-01 6.000000e-01
    endloop
  endfacet
  facet normal -0.000000e+00 -1.000000e+00 0.000000e+00
    outer loop
      vertex 1.400000e+00 -2.900000e-01 7.550000e-01
      vertex 1.200000e+00 -2.900000e-01 7.550000e-01
      vertex 1.200000e+00 -2.900000e-01 6.000000e-01
    endloop
  endfacet
  facet normal 0.000000e+00 -1.000000e+00 0.000000e+00
    outer loop
      vertex 1.200000e+00 -2.900000e-01 6.000000e-01
      vertex 1.400000e+00 -2.900000e-01 6.000000e-01
      vertex 1.400000e+00 -2.900000e-01 7.550000e-01
    endloop
  endfacet
  facet normal 0.000000e+00 0.000000e+00 1.000000e+00
    outer loop
      vertex 9.000000e-01 -6.700000e-01 -6.000000e-01
      vertex -1.200000e+00 -6.700000e-01 -6.000000e-01
      vertex -1.200000e+00 -1.000000e+00 -6.000000e-01
    endloop
  endfacet
  facet normal 0.000000e+00 0.000000e+00 1.000000e+00
    outer loop
      vertex -1.200000e+00 -1.000000e+00 -6.000000e-01
      vertex 9.000000e-01 -1.000000e+00 -6.000000e-01
      vertex 9.000000e-01 -6.700000e-01 -6.000000e-01
    endloop
  endfacet
  facet normal 0.000000e+00 0.000000e+00 1.000000e+00
    outer loop
      vertex 9.000000e-01 -2.900000e-01 -6.000000e-01
      vertex -1.200000e+00 -2.900000e-01 -6.000000e-01
      vertex -1.200000e+00 -6.700000e-01 -6.000000e-01
    endloop
  endfacet
  facet normal 0.000000e+00 0.000000e+00 1.000000e+00
    outer loop
      vertex -1.200000e+00 -6.700000e-01 -6.000000e-01
      vertex 9.000000e-01 -6.700000e-01 -6.000000e-01
      vertex 9.000000e-01 -2.900000e-01 -6.000000e-01
    endloop
  endfacet
  facet normal 0.000000e+00 0.000000e+00 1.000000e+00
    outer loop
      vertex 9.000000e-01 1.000000e+00 -6.000000e-01
      vertex -1.200000e+00 1.000000e+00 -6.000000e-01
      vertex -1.200000e+00 -2.900000e-01 -6.000000e-01
    endloop
  endfacet
  facet normal 0.000000e+00 0.000000e+00 1.000000e+00
    outer loop
      vertex -1.200000e+00 -2.900000e-01 -6.000000e-01
      vertex 9.000000e-01 -2.900000e-01 -6.000000e-01
      vertex 9.000000e-01 1.000000e+00 -6.000000e-01
    endloop
  endfacet
  facet normal 0.000000e+00 0.000000e+00 1.000000e+00
    outer loop
      vertex 1.200000e+00 -6.700000e-01 -6.000000e-01
      vertex 9.000000e-01 -6.700000e-01 -6.000000e-01
      vertex 9.000000e-01 -1.000000e+00 -6.000000e-01
    endloop
  endfacet
  facet normal 0.000000e+00 0.000000e+00 1.000000e+00
    outer loop
      vertex 9.000000e-01 -1.000000e+00 -6.000000e-01
      vertex 1.200000e+00 -1.000000e+00 -6.000000e-01
      vertex 1.200000e+00 -6.700000e-01 -6.000000e-01
    endloop
  endfacet
  facet normal 0.000000e+00 0.000000e+00 1.000000e+00
    outer loop
      vertex 1.200000e+00 -2.900000e-01 -6.000000e-01
      vertex 9.000000e-01 -2.900000e-01 -6.000000e-01
      vertex 9.000000e-01 -6.700000e-01 -6.000000e-01
    endloop
  endfacet
  facet normal 0.000000e+00 0.000000e+00 1.000000e+00
    outer loop
      vertex 9.000000e-01 -6.700000e-01 -6.000000e-01
      vertex 1.200000e+00 -6.700000e-01 -6.000000e-01
      vertex 1.200000e+00 -2.900000e-01 -6.000000e-01
    endloop
  endfacet
  facet normal 0.000000e+00 0.000000e+00 1.000000e+00
    outer loop
      vertex 1.200000e+00 1.000000e+00 -6.000000e-01
      vertex 9.000000e-01 1.000000e+00 -6.000000e-01
      vertex 9.000000e-01 -2.900000e-01 -6.000000e-01
    endloop
  endfacet
  facet normal 0.000000e+00 0.000000e+00 1.000000e+00
    outer loop
      vertex 9.000000e-01 -2.900000e-01 -6.000000e-01
      vertex 1.200000e+00 -2.900000e-01 -6.000000e-01
      vertex 1.200000e+00 1.000000e+00 -6.000000e-01
    endloop
  endfacet
  facet normal 0.000000e+00 0.000000e+00 1.000000e+00
    outer loop
      vertex 1.400000e+00 -2.900000e-01 -1.950000e-01
      vertex 1.200000e+00 -2.900000e-01 -1.950000e-01
      vertex 1.200000e+00 -6.700000e-01 -1.950000e-01
    endloop
  endfacet
  facet normal 0.000000e+00 0.000000e+00 1.000000e+00
    outer loop
      vertex 1.200000e+00 -6.700000e-01 -1.950000e-01
      vertex 1.400000e+00 -6.700000e-01 -1.950000e-01
      vertex 1.400000e+00 -2.900000e-01 -1.950000e-01
    endloop
  endfacet
  facet normal 0.000000e+00 0.000000e+00 -1.000000e+00
    outer loop
      vertex -1.200000e+00 -6.700000e-01 6.000000e-01
      vertex 9.000000e-01 -6.700000e-01 6.000000e-01
      vertex 9.000000e-01 -1.000000e+00 6.000000e-01
    endloop
  endfacet
  facet normal 0.000000e+00 0.000000e+00 -1.000000e+00
    outer loop
      vertex 9.000000e-01 -1.000000e+00 6.000000e-01
      vertex -1.200000e+00 -1.000000e+00 6.000000e-01
      vertex -1.200000e+00 -6.700000e-01 6.000000e-01
    endloop
  endfacet
  facet normal 0.000000e+00 0.000000e+00 -1.000000e+00
    outer loop
      vertex -1.200000e+00 -2.900000e-01 6.000000e-01
      vertex 9.000000e-01 -2.900000e-01 6.000000e-01
      vertex 9.000000e-01 -6.700000e-01 6.000000e-01
    endloop
  endfacet
  facet normal 0.000000e+00 0.000000e+00 -1.000000e+00
    outer loop
      vertex 9.000000e-01 -6.700000e-01 6.000000e-01
      vertex -1.200000e+00 -6.700000e-01 6.000000e-01
      vertex -1.200000e+00 -2.900000e-01 6.000000e-01
    endloop
  endfacet
  facet normal 0.000000e+00 0.000000e+00 -1.000000e+00
    outer loop
      vertex -1.200000e+00 1.000000e+00 6.000000e-01
      vertex 9.000000e-01 1.000000e+00 6.000000e-01
      vertex 9.000000e-01 -2.900000e-01 6.000000e-01
    endloop
  endfacet
  facet normal 0.000000e+00 0.000000e+00 -1.000000e+00
    outer loop
      vertex 9.000000e-01 -2.900000e-01 6.000000e-01
      vertex -1.200000e+00 -2.900000e-01 6.000000e-01
      vertex -1.200000e+00 1.000000e+00 6.000000e-01
    endloop
  endfacet
  facet normal 0.000000e+00 0.000000e+00 -1.000000e+00
    outer loop
      vertex 9.000000e-01 -6.700000e-01 6.000000e-01
      vertex 1.200000e+00 -6.700000e-01 6.000000e-01
      vertex 1.200000e+00 -1.000000e+00 6.000000e-01
    endloop
  endfacet
  facet normal 0.000000e+00 0.000000e+00 -1.000000e+00
    outer loop
      vertex 1.200000e+00 -1.000000e+00 6.000000e-01
      vertex 9.000000e-01 -1.000000e+00 6.000000e-01
      vertex 9.000000e-01 -6.700000e-01 6.000000e-01
    endloop
  endfacet
  facet normal 0.000000e+00 0.000000e+00 -1.000000e+00
    outer loop
      vertex 9.000000e-01 -2.900000e-01 7.550000e-01
      vertex 1.200000e+00 -2.900000e-01 7.550000e-01
      vertex 1.200000e+00 -6.700000e-01 7.550000e-01
    endloop
  endfacet
  facet normal 0.000000e+00 0.000000e+00 -1.000000e+00
    outer loop
      vertex 1.200000e+00 -6.700000e-01 7.550000e-01
      vertex 9.000000e-01 -6.700000e-01 7.550000e-01
      vertex 9.000000e-01 -2.900000e-01 7.550000e-01
    endloop
  endfacet
  facet normal 0.000000e+00 0.000000e+00 -1.000000e+00
    outer loop
      vertex 9.000000e-01 1.000000e+00 6.000000e-01
      vertex 1.200000e+00 1.000000e+00 6.000000e-01
      vertex 1.200000e+00 -2.900000e-01 6.000000e-01
    endloop
  endfacet
  facet normal 0.000000e+00 0.000000e+00 -1.000000e+00
    outer loop
      vertex 1.200000e+00 -2.900000e-01 6.000000e-01
      vertex 9.000000e-01 -2.900000e-01 6.000000e-01
      vertex 9.000000e-01 1.000000e+00 6.000000e-01
    endloop
  endfacet
  facet normal 0.000000e+00 0.000000e+00 -1.000000e+00
    outer loop
      vertex 1.200000e+00 -2.900000e-01 7.550000e-01
      vertex 1.400000e+00 -2.900000e-01 7.550000e-01
      vertex 1.400000e+00 -6.700000e-01 7.550000e-01
    endloop
  endfacet
  facet normal 0.000000e+00 0.000000e+00 -1.000000e+00
    outer loop
      vertex 1.400000e+00 -6.700000e-01 7.550000e-01
      vertex 1.200000e+00 -6.700000e-01 7.550000e-01
      vertex 1.200000e+00 -2.900000e-01 7.550000e-01
    endloop
  endfacet
endsolid impression